<svg version="1" xmlns="http://www.w3.org/2000/svg" width="376" height="376" viewBox="0 0 282.000000 282.000000"><path d="M22.6.7c-.4.5-1.1.8-1.5.8C18.7 1.5 9.9 9 6 14.3l-4.5 6.1-.3 118C.9 274 .1 262.1 10.5 272.5 20.8 282.8 9.2 282 142 282h115.7l6.1-3c7-3.6 12.4-9.1 15.8-16.4l2.4-5.1v-116c0-133.3.9-121.6-9.6-132.1C262.2-.8 273.8 0 140 0 75.8 0 23 .3 22.6.7zM153 58.9c1.9.5 5.5 1.5 8 2.1 19.1 5 35.4 21.1 41.1 40.5 1.1 3.8 2.5 8.4 3 10.1 1.2 3.9 1.2 14.9 0 18.8-6 20-9.9 27.5-19.2 36-3.4 3.2-8.6 7.1-11.5 8.8-6.3 3.5-6.9 4.2-5.2 6 .7.7 7.6 10.1 15.2 20.8 7.7 10.7 15.1 21 16.4 22.8l2.4 3.2h-33.9l-6.4-9c-3.5-4.9-9.3-13-12.9-17.9-3.6-4.9-8-10.9-9.7-13.5L137 183h-11c-6 0-11-.2-11-.4s-1.1-6.2-2.5-13.2c-1.4-7-2.5-12.9-2.5-13.1 0-.2 9.3-.3 20.6-.3h20.6l6.2-2.9c15.9-7.7 24.5-24.7 20.2-40.3-3.2-11.8-10.9-20.4-22.4-25.2-4-1.7-7.8-2-26-2.4-11.7-.2-22.4-.1-23.7.2l-2.5.6v142H76V57.5l36.7.2c20.3.2 38.4.7 40.3 1.2z"/></svg>